<svg id="svg" version="1.1" xmlns="http://www.w3.org/2000/svg" xmlns:xlink="http://www.w3.org/1999/xlink" width="400" height="400" viewBox="0, 0, 400,400"><g id="svgg"><path id="path0" d="M192.028 72.860 C 191.572 73.284,191.178 73.669,191.151 73.716 C 191.124 73.762,190.989 76.899,190.851 80.686 C 190.637 86.549,190.494 87.679,189.886 88.286 C 189.213 88.959,187.136 89.006,153.886 89.103 C 113.701 89.220,117.600 88.799,117.600 93.024 L 117.600 95.495 119.100 95.743 C 119.925 95.880,136.112 95.993,155.071 95.996 C 195.096 96.001,190.992 95.460,190.717 100.690 C 190.442 105.928,194.175 105.383,157.718 105.507 C 135.499 105.583,126.108 105.744,125.732 106.056 C 125.293 106.421,125.200 119.543,125.200 181.417 L 125.200 256.336 127.432 258.468 C 128.660 259.641,129.965 260.764,130.332 260.965 C 131.186 261.431,138.680 267.575,140.000 268.891 C 140.973 269.861,147.855 275.431,150.957 277.759 C 151.806 278.396,153.153 279.500,153.951 280.211 C 157.408 283.296,162.897 287.909,164.645 289.200 C 166.313 290.431,173.158 295.980,174.800 297.432 C 175.130 297.724,175.762 298.286,176.205 298.681 C 178.070 300.345,182.327 303.859,183.376 304.600 C 185.884 306.371,190.528 310.154,194.425 313.600 C 195.047 314.150,195.793 314.780,196.082 315.000 C 196.371 315.220,197.287 315.985,198.118 316.700 C 200.295 318.575,201.297 318.037,210.110 310.269 C 211.479 309.062,213.680 307.279,215.000 306.307 C 216.320 305.336,218.232 303.834,219.249 302.970 C 220.266 302.107,221.871 300.770,222.816 300.000 C 223.761 299.230,224.909 298.228,225.367 297.772 C 226.478 296.669,234.437 290.180,237.200 288.125 C 239.185 286.649,240.639 285.430,243.000 283.263 C 243.440 282.860,247.310 279.681,251.600 276.200 C 255.890 272.719,260.049 269.315,260.843 268.635 C 261.637 267.956,263.032 266.770,263.943 266.000 C 264.853 265.230,266.017 264.240,266.527 263.800 C 267.038 263.360,268.059 262.550,268.796 262.000 C 270.959 260.386,273.333 258.371,274.300 257.329 L 275.200 256.359 275.195 181.879 C 275.192 140.916,275.081 106.995,274.948 106.500 L 274.707 105.600 243.442 105.600 C 216.031 105.600,212.070 105.525,211.305 104.988 C 209.553 103.761,208.944 98.256,210.400 96.800 C 211.187 96.013,211.761 95.999,245.900 95.960 C 264.985 95.938,281.050 95.796,281.600 95.644 C 282.741 95.329,283.207 92.321,282.431 90.281 L 282.025 89.213 246.627 89.106 C 213.277 89.006,211.187 88.959,210.514 88.287 C 209.900 87.673,209.772 86.590,209.600 80.554 C 209.388 73.112,209.179 72.400,207.200 72.400 C 205.174 72.400,205.134 72.671,205.608 83.207 C 205.850 88.593,206.199 98.670,206.383 105.600 C 207.030 129.902,207.208 132.749,208.103 133.033 C 208.535 133.170,212.154 133.317,216.144 133.360 L 223.400 133.438 230.000 136.841 C 233.630 138.713,237.860 140.966,239.400 141.849 C 240.940 142.732,243.435 143.982,244.945 144.627 C 249.549 146.594,250.800 148.067,250.800 151.519 C 250.800 154.655,250.584 154.342,254.479 156.842 C 256.604 158.206,257.062 159.638,256.713 163.838 C 256.394 167.690,255.919 167.796,250.884 165.137 C 248.528 163.892,241.515 160.337,235.301 157.237 L 224.001 151.600 200.301 151.603 L 176.600 151.606 169.400 155.200 C 165.440 157.177,161.997 158.795,161.749 158.797 C 161.501 158.799,161.082 159.061,160.817 159.380 C 160.552 159.698,159.700 160.169,158.923 160.426 C 158.145 160.682,156.315 161.565,154.855 162.389 C 144.141 168.429,143.600 168.418,143.600 162.170 C 143.600 158.881,144.832 156.400,146.466 156.400 C 148.058 156.400,149.600 154.353,149.600 152.239 C 149.600 148.984,151.534 145.600,153.394 145.600 C 153.732 145.600,162.269 141.347,164.000 140.316 C 164.770 139.858,168.010 138.118,171.200 136.451 L 177.000 133.419 184.146 133.342 C 194.110 133.233,193.071 133.983,193.346 126.703 C 194.816 87.740,195.174 74.030,194.743 73.150 C 194.248 72.137,192.952 71.998,192.028 72.860 M222.845 157.605 C 224.030 157.827,225.488 158.367,226.084 158.805 C 226.680 159.242,227.358 159.600,227.590 159.600 C 227.955 159.600,238.362 164.638,240.600 165.898 C 241.040 166.146,242.030 166.654,242.800 167.026 C 246.537 168.836,247.911 169.629,249.200 170.723 L 250.600 171.911 250.734 176.069 C 251.008 184.586,250.180 184.938,241.400 180.028 C 240.300 179.413,237.330 177.879,234.800 176.619 C 232.270 175.359,228.614 173.535,226.676 172.564 L 223.152 170.800 200.225 170.800 L 177.299 170.800 171.711 173.600 C 168.638 175.140,166.000 176.400,165.848 176.400 C 165.697 176.400,163.332 177.669,160.593 179.220 C 153.223 183.392,152.177 183.808,150.994 183.033 C 149.111 181.799,148.966 172.848,150.800 171.019 C 152.283 169.540,175.844 157.798,178.000 157.464 C 180.354 157.099,220.829 157.226,222.845 157.605 M193.846 177.872 C 197.178 179.601,196.975 178.097,197.200 202.729 C 197.420 226.792,197.277 225.600,199.947 225.600 C 203.665 225.600,203.373 227.443,203.600 202.533 C 203.710 190.470,203.947 180.330,204.127 180.000 C 205.997 176.573,215.260 175.731,218.130 178.728 C 220.416 181.114,220.400 180.936,220.400 203.738 C 220.400 227.142,220.171 225.495,223.440 225.644 C 226.616 225.789,226.400 227.141,226.400 207.164 C 226.400 192.978,226.514 188.901,226.939 187.884 C 228.685 183.706,237.203 182.646,240.971 186.138 C 242.774 187.809,242.800 188.171,242.802 211.526 L 242.804 233.800 243.702 234.887 C 244.196 235.484,246.940 237.162,249.800 238.615 C 256.622 242.080,256.513 241.959,256.720 246.288 C 256.964 251.385,255.108 252.931,251.800 250.388 C 251.580 250.219,249.330 249.007,246.800 247.694 C 244.270 246.381,241.300 244.781,240.200 244.138 C 239.100 243.495,236.040 241.926,233.400 240.652 C 230.760 239.378,227.700 237.855,226.600 237.268 L 224.600 236.200 200.400 236.200 L 176.200 236.200 172.700 237.900 C 166.373 240.973,162.630 242.858,160.600 243.992 C 159.500 244.606,157.430 245.712,156.000 246.449 C 154.570 247.186,152.225 248.447,150.789 249.251 C 144.879 252.561,143.600 252.120,143.600 246.775 C 143.600 242.177,143.945 241.725,149.200 239.437 C 151.610 238.388,155.751 235.997,156.696 235.110 L 157.600 234.261 157.618 211.630 C 157.631 194.864,157.761 188.726,158.118 187.941 C 160.423 182.879,170.766 182.715,173.489 187.698 C 174.132 188.876,174.219 190.753,174.400 207.400 L 174.600 225.800 176.600 225.666 C 177.700 225.592,178.999 225.277,179.487 224.965 L 180.374 224.399 180.487 202.407 L 180.600 180.415 181.859 179.156 C 184.217 176.798,190.484 176.127,193.846 177.872 M230.869 245.123 C 234.681 247.061,239.060 249.376,240.600 250.269 C 242.140 251.161,244.705 252.490,246.300 253.222 C 249.159 254.534,249.200 254.574,249.200 256.077 C 249.200 256.914,249.059 257.600,248.886 257.600 C 248.714 257.600,247.139 258.784,245.386 260.231 C 243.634 261.678,241.505 263.433,240.656 264.131 C 239.806 264.829,238.726 265.735,238.256 266.145 C 237.240 267.029,233.979 269.678,233.404 270.087 C 233.182 270.245,231.314 271.775,229.253 273.487 C 222.719 278.916,223.556 278.861,217.845 274.233 C 215.620 272.430,212.720 270.132,211.400 269.127 C 210.080 268.122,208.550 266.858,208.000 266.317 C 206.662 265.003,202.029 261.432,200.885 260.834 C 200.005 260.374,196.443 262.705,192.201 266.518 C 191.760 266.914,191.040 267.561,190.600 267.957 C 190.160 268.353,189.084 269.199,188.208 269.838 C 186.282 271.244,186.267 271.255,181.934 274.780 C 178.254 277.774,176.770 278.267,175.557 276.900 C 175.215 276.515,174.241 275.660,173.392 275.000 C 169.630 272.075,160.930 265.009,157.792 262.330 C 155.904 260.719,153.648 258.871,152.779 258.224 C 150.553 256.567,150.582 255.153,152.866 253.908 C 158.398 250.892,162.239 248.883,169.000 245.470 L 176.600 241.632 200.269 241.616 L 223.939 241.600 230.869 245.123 M207.904 273.868 C 218.901 282.690,218.720 281.844,210.910 287.907 C 209.569 288.948,206.971 291.074,205.136 292.631 C 199.997 296.991,200.000 296.992,192.400 290.145 C 191.630 289.451,190.100 288.207,189.000 287.380 C 182.365 282.393,182.306 281.948,187.748 277.852 C 189.399 276.609,190.988 275.369,191.278 275.096 C 195.334 271.281,199.620 268.318,200.693 268.588 C 201.197 268.714,204.442 271.090,207.904 273.868 " stroke="none" fill="#243961" fill-rule="evenodd"></path><path id="path1" d="M0.000 200.000 L 0.000 400.000 200.000 400.000 L 400.000 400.000 400.000 200.000 L 400.000 0.000 200.000 0.000 L 0.000 0.000 0.000 200.000 M195.594 70.797 C 197.046 71.574,197.301 73.550,196.844 80.511 C 196.609 84.080,196.217 94.920,195.971 104.600 C 195.460 124.721,194.816 133.755,193.821 134.751 C 193.281 135.292,191.799 135.436,184.887 135.618 L 176.600 135.836 166.000 141.253 C 150.734 149.055,151.600 148.392,151.600 152.285 C 151.600 155.189,151.077 155.974,148.020 157.654 C 145.482 159.049,145.214 159.508,145.205 162.473 C 145.199 164.579,146.240 165.398,147.529 164.300 C 147.898 163.985,150.180 162.776,152.600 161.612 C 155.020 160.448,157.540 159.211,158.200 158.862 C 166.599 154.430,173.325 151.042,175.349 150.225 C 176.692 149.683,179.995 149.600,200.178 149.600 C 224.661 149.600,225.982 149.688,228.026 151.450 C 228.370 151.747,229.267 152.205,230.020 152.467 C 230.772 152.729,231.570 153.105,231.794 153.302 C 232.235 153.690,235.388 155.313,245.600 160.407 C 249.230 162.217,252.502 163.963,252.871 164.285 C 254.312 165.545,255.200 164.601,255.200 161.811 L 255.200 159.275 253.331 158.038 C 252.304 157.357,251.264 156.800,251.020 156.800 C 249.870 156.800,249.017 154.949,248.748 151.871 C 248.430 148.238,248.678 148.508,243.000 145.608 C 240.800 144.484,238.730 143.409,238.400 143.219 C 238.070 143.028,234.470 141.245,230.400 139.255 L 223.000 135.637 215.113 135.518 C 205.038 135.367,205.900 136.152,205.536 126.797 C 205.382 122.842,205.156 119.290,205.034 118.903 C 204.912 118.516,204.633 111.720,204.415 103.800 C 204.196 95.880,203.897 85.512,203.749 80.760 C 203.425 70.331,203.505 70.116,207.535 70.605 C 208.781 70.756,226.090 70.997,246.000 71.140 C 276.522 71.359,283.019 71.532,283.660 72.143 C 283.693 72.174,283.867 75.800,284.046 80.200 C 284.225 84.600,284.488 89.594,284.630 91.299 C 285.204 98.206,288.799 97.600,247.248 97.600 C 220.802 97.600,212.446 97.714,212.080 98.080 C 211.481 98.679,211.461 100.683,212.039 102.340 L 212.478 103.600 243.459 103.600 C 276.298 103.600,276.253 103.598,276.952 105.418 C 277.088 105.774,277.200 139.985,277.200 181.442 L 277.200 256.818 275.549 258.609 C 274.641 259.594,273.757 260.400,273.585 260.400 C 273.413 260.400,272.131 261.480,270.736 262.799 C 269.341 264.119,268.093 265.199,267.962 265.199 C 267.831 265.200,267.201 265.663,266.562 266.229 C 265.923 266.794,264.770 267.733,264.000 268.313 C 263.230 268.894,262.302 269.647,261.937 269.985 C 261.572 270.323,260.791 270.960,260.202 271.400 C 259.612 271.840,258.290 272.939,257.265 273.842 C 255.501 275.396,244.474 284.372,242.463 285.892 C 241.948 286.281,241.228 286.889,240.863 287.241 C 239.898 288.174,235.712 291.653,230.000 296.269 C 227.250 298.491,224.383 300.869,223.628 301.554 C 222.873 302.239,222.153 302.801,222.028 302.802 C 221.903 302.803,221.080 303.468,220.200 304.279 C 219.320 305.091,216.800 307.198,214.600 308.963 C 212.400 310.728,210.395 312.358,210.145 312.586 C 209.679 313.009,209.462 313.192,205.526 316.484 C 204.276 317.530,202.524 318.765,201.633 319.230 L 200.014 320.074 198.521 319.151 C 197.701 318.644,196.729 317.953,196.361 317.615 C 195.146 316.496,191.860 313.758,187.220 309.997 C 181.860 305.653,175.596 300.453,174.976 299.834 C 174.737 299.595,173.847 298.860,172.999 298.200 C 168.987 295.078,166.941 293.414,166.284 292.738 C 165.891 292.332,165.441 291.995,165.284 291.989 C 165.128 291.982,164.100 291.179,163.000 290.203 C 161.900 289.227,160.486 288.017,159.859 287.514 C 159.231 287.011,158.419 286.330,158.054 286.000 C 157.689 285.670,156.493 284.680,155.395 283.800 C 154.298 282.920,153.310 282.109,153.200 281.998 C 153.090 281.886,152.010 281.051,150.800 280.142 C 149.590 279.233,148.156 278.064,147.613 277.544 C 147.070 277.025,145.360 275.573,143.813 274.317 C 142.266 273.062,140.696 271.768,140.325 271.442 C 139.417 270.646,135.744 267.683,133.825 266.200 C 132.972 265.540,131.853 264.640,131.341 264.200 C 129.276 262.428,126.251 259.728,124.963 258.507 L 123.600 257.214 123.600 181.236 L 123.600 105.258 124.654 104.429 C 125.699 103.607,125.954 103.600,156.522 103.600 C 191.393 103.600,188.800 103.856,188.800 100.418 C 188.800 97.385,191.532 97.600,153.009 97.600 C 112.017 97.600,115.612 98.100,115.612 92.400 C 115.612 90.750,115.871 88.680,116.188 87.800 C 116.599 86.660,116.770 84.300,116.782 79.589 C 116.797 74.274,116.922 72.804,117.423 72.089 L 118.045 71.200 153.923 71.160 C 173.655 71.138,190.250 70.976,190.800 70.800 C 192.244 70.338,194.733 70.336,195.594 70.797 M176.552 159.381 C 176.430 159.700,175.670 160.173,174.865 160.433 C 174.059 160.692,173.148 161.106,172.841 161.352 C 172.533 161.598,169.923 162.980,167.041 164.423 C 151.727 172.088,151.630 172.162,151.619 176.200 C 151.604 181.498,152.014 181.724,157.011 179.170 C 158.765 178.273,161.100 177.083,162.200 176.525 C 163.300 175.968,164.470 175.360,164.800 175.175 C 168.249 173.241,174.699 170.000,175.098 170.000 C 175.320 170.000,175.726 169.730,176.000 169.400 C 176.432 168.879,179.601 168.800,200.030 168.800 L 223.561 168.800 227.481 170.856 C 229.636 171.986,231.460 173.066,231.533 173.256 C 231.607 173.445,231.967 173.613,232.333 173.629 C 232.700 173.645,233.540 174.003,234.200 174.425 C 234.860 174.846,235.670 175.303,236.000 175.441 C 237.593 176.103,245.446 180.113,245.780 180.434 C 247.615 182.201,248.824 180.349,248.772 175.850 C 248.729 172.120,248.917 172.288,239.377 167.416 C 234.550 164.951,228.793 162.004,226.584 160.867 L 222.567 158.800 199.671 158.800 C 180.027 158.800,176.743 158.882,176.552 159.381 M184.067 179.939 L 182.400 181.477 182.400 203.263 C 182.400 228.751,182.817 226.571,177.800 227.341 C 177.140 227.442,175.927 227.655,175.103 227.814 C 172.272 228.362,172.400 229.281,172.400 208.370 C 172.400 187.213,172.523 188.095,169.360 186.598 C 166.498 185.244,160.998 185.906,160.458 187.669 C 160.369 187.961,160.055 188.478,159.760 188.818 C 159.330 189.314,159.203 193.949,159.113 212.556 L 159.000 235.676 157.800 236.661 C 157.140 237.203,155.070 238.366,153.200 239.246 C 151.330 240.126,149.530 241.020,149.200 241.231 C 148.870 241.443,148.049 241.871,147.376 242.182 C 145.885 242.871,145.200 244.263,145.200 246.605 C 145.200 248.888,146.023 249.421,148.004 248.420 C 148.772 248.032,150.750 247.039,152.400 246.214 C 154.050 245.390,155.670 244.572,156.000 244.399 C 156.330 244.225,158.670 243.053,161.200 241.794 C 163.730 240.535,166.070 239.350,166.400 239.160 C 166.730 238.970,167.720 238.447,168.600 237.998 C 169.480 237.549,171.370 236.511,172.800 235.691 L 175.400 234.200 200.200 234.200 L 225.000 234.200 227.600 235.666 C 229.030 236.472,233.260 238.688,237.000 240.590 C 240.740 242.492,244.070 244.193,244.400 244.371 C 244.730 244.548,246.170 245.269,247.600 245.973 C 249.030 246.677,250.827 247.601,251.594 248.026 C 254.289 249.522,255.200 249.155,255.200 246.574 C 255.200 243.878,254.733 242.912,253.068 242.160 C 252.371 241.846,251.530 241.420,251.200 241.214 C 250.870 241.008,249.070 240.111,247.200 239.221 C 245.330 238.331,243.260 237.170,242.600 236.640 L 241.400 235.676 241.290 212.354 L 241.181 189.031 240.290 188.077 C 238.019 185.642,234.669 184.995,231.526 186.385 C 228.219 187.848,228.451 186.309,228.319 207.650 C 228.185 229.067,228.299 228.275,225.416 227.843 C 217.468 226.655,218.400 229.742,218.400 204.601 C 218.400 179.983,218.507 181.121,216.043 179.573 C 212.857 177.572,209.039 177.945,206.100 180.544 L 205.200 181.339 205.200 203.441 L 205.200 225.542 204.146 226.371 C 202.494 227.670,197.539 227.575,196.182 226.218 L 195.200 225.236 195.195 203.718 C 195.192 191.883,195.091 181.834,194.971 181.387 C 194.120 178.219,186.959 177.268,184.067 179.939 M177.600 243.454 C 176.910 243.691,157.306 253.472,156.400 254.031 C 156.070 254.234,155.305 254.576,154.700 254.790 C 153.000 255.393,153.276 256.748,155.394 258.200 C 157.129 259.389,166.538 267.054,168.539 268.908 C 169.111 269.438,170.057 270.216,170.643 270.636 C 171.229 271.056,172.205 271.850,172.813 272.400 C 175.306 274.655,176.606 275.600,177.216 275.600 C 178.085 275.600,186.747 268.994,191.608 264.625 C 192.602 263.731,194.029 262.550,194.779 262.000 C 195.529 261.450,196.625 260.600,197.216 260.111 C 199.578 258.154,201.353 258.285,203.824 260.599 C 204.471 261.204,205.630 262.103,206.400 262.597 C 207.170 263.091,208.430 264.146,209.200 264.943 C 209.970 265.740,210.759 266.393,210.954 266.396 C 211.149 266.398,211.703 266.805,212.186 267.300 C 213.168 268.307,213.526 268.601,217.438 271.611 C 218.957 272.780,220.709 274.156,221.331 274.668 C 221.953 275.181,222.791 275.600,223.194 275.600 C 223.967 275.600,232.234 269.136,236.172 265.452 C 236.848 264.820,238.030 263.831,238.800 263.254 C 239.570 262.677,240.290 262.113,240.400 262.000 C 240.510 261.887,241.230 261.320,242.000 260.739 C 242.770 260.158,244.017 259.124,244.772 258.441 C 245.527 257.759,246.292 257.200,246.472 257.200 C 247.391 257.200,246.737 255.158,245.700 254.790 C 245.095 254.576,244.330 254.217,244.000 253.992 C 243.670 253.768,242.770 253.313,242.000 252.982 C 241.230 252.651,240.330 252.215,240.000 252.014 C 239.670 251.812,237.060 250.462,234.200 249.015 C 231.340 247.568,227.752 245.712,226.228 244.892 L 223.455 243.400 200.828 243.323 C 188.382 243.281,177.930 243.340,177.600 243.454 " stroke="none" fill="#fbfbfb" fill-rule="evenodd"></path><path id="path2" d="M117.423 72.089 C 116.782 73.004,116.484 85.380,117.052 87.500 L 117.293 88.400 152.947 88.394 C 173.706 88.390,188.841 88.235,189.176 88.023 C 190.427 87.232,190.973 71.906,189.767 71.443 C 189.419 71.309,173.139 71.200,153.590 71.200 L 118.045 71.200 117.423 72.089 M210.412 71.786 C 209.707 72.635,210.261 86.246,211.051 87.500 L 211.618 88.400 247.187 88.400 L 282.755 88.400 283.377 87.511 C 283.879 86.795,283.999 85.373,283.995 80.211 C 283.988 72.851,283.888 72.260,282.547 71.649 C 280.884 70.891,211.044 71.024,210.412 71.786 M198.400 270.096 C 197.630 270.582,196.807 271.164,196.571 271.390 C 196.335 271.615,195.453 272.340,194.611 273.000 C 193.769 273.660,192.792 274.476,192.440 274.814 C 192.088 275.152,190.540 276.442,189.000 277.680 C 183.236 282.314,183.191 281.877,190.020 287.446 C 192.688 289.621,195.530 291.996,196.335 292.724 C 199.808 295.863,200.436 295.811,204.990 292.011 C 206.756 290.538,209.280 288.467,210.600 287.409 C 215.075 283.822,216.514 282.083,215.698 281.247 C 214.802 280.328,207.963 274.542,206.057 273.090 C 205.256 272.480,204.330 271.759,204.000 271.489 C 200.767 268.842,200.496 268.775,198.400 270.096 " stroke="none" fill="#f3ce32" fill-rule="evenodd"></path><path id="path3" d="M191.200 70.663 C 190.870 70.773,190.335 70.949,190.011 71.053 C 188.808 71.441,190.473 71.923,191.751 71.557 C 196.412 70.220,196.368 69.855,195.191 100.000 C 194.972 105.610,194.612 115.229,194.392 121.377 C 193.875 135.805,194.869 134.400,185.178 134.400 L 177.575 134.400 169.287 138.662 C 164.729 141.006,158.902 143.979,156.337 145.268 C 151.142 147.880,150.812 148.289,150.787 152.160 C 150.771 154.517,150.127 155.496,147.772 156.741 C 144.455 158.496,144.350 158.670,144.482 162.216 C 144.653 166.822,144.068 166.960,161.322 158.220 L 175.971 150.800 200.337 150.800 L 224.703 150.800 232.652 154.854 C 237.023 157.083,243.390 160.340,246.800 162.091 C 256.006 166.819,256.000 166.819,256.000 161.842 C 256.000 158.965,255.202 157.753,252.567 156.625 C 250.422 155.706,249.600 154.238,249.600 151.327 C 249.600 147.893,249.963 148.163,235.294 140.700 L 222.911 134.400 215.317 134.400 C 205.523 134.400,206.619 136.127,206.051 119.800 C 205.799 112.540,205.414 102.370,205.196 97.200 C 204.028 69.476,203.929 70.182,208.784 71.591 C 210.532 72.098,211.446 71.426,209.839 70.815 C 207.927 70.088,205.300 70.300,204.340 71.260 C 203.496 72.104,203.485 72.275,203.749 80.760 C 203.897 85.512,204.196 95.880,204.415 103.800 C 204.633 111.720,204.912 118.516,205.034 118.903 C 205.156 119.290,205.382 122.842,205.536 126.797 C 205.900 136.152,205.038 135.367,215.113 135.518 L 223.000 135.637 230.400 139.255 C 234.470 141.245,238.070 143.028,238.400 143.219 C 238.730 143.409,240.800 144.484,243.000 145.608 C 248.678 148.508,248.430 148.238,248.748 151.871 C 249.017 154.949,249.870 156.800,251.020 156.800 C 251.264 156.800,252.304 157.357,253.331 158.038 L 255.200 159.275 255.200 161.811 C 255.200 164.601,254.312 165.545,252.871 164.285 C 252.502 163.963,249.230 162.217,245.600 160.407 C 235.388 155.313,232.235 153.690,231.794 153.302 C 231.570 153.105,230.772 152.729,230.020 152.467 C 229.267 152.205,228.370 151.747,228.026 151.450 C 225.982 149.688,224.661 149.600,200.178 149.600 C 179.995 149.600,176.692 149.683,175.349 150.225 C 173.325 151.042,166.599 154.430,158.200 158.862 C 157.540 159.211,155.020 160.448,152.600 161.612 C 150.180 162.776,147.898 163.985,147.529 164.300 C 146.240 165.398,145.199 164.579,145.205 162.473 C 145.214 159.508,145.482 159.049,148.020 157.654 C 151.077 155.974,151.600 155.189,151.600 152.285 C 151.600 148.392,150.734 149.055,166.000 141.253 L 176.600 135.836 184.887 135.618 C 191.799 135.436,193.281 135.292,193.821 134.751 C 194.816 133.755,195.460 124.721,195.971 104.600 C 196.217 94.920,196.609 84.080,196.844 80.511 C 197.459 71.129,196.231 68.985,191.200 70.663 M116.090 88.016 C 115.558 89.722,115.430 95.138,115.906 95.823 C 117.184 97.664,115.854 97.600,153.009 97.600 C 191.532 97.600,188.800 97.385,188.800 100.418 C 188.800 103.856,191.393 103.600,156.522 103.600 C 125.954 103.600,125.699 103.607,124.654 104.429 L 123.600 105.258 123.600 181.236 L 123.600 257.214 124.963 258.507 C 126.251 259.728,129.276 262.428,131.341 264.200 C 131.853 264.640,132.972 265.540,133.825 266.200 C 135.744 267.683,139.417 270.646,140.325 271.442 C 140.696 271.768,142.266 273.062,143.813 274.317 C 145.360 275.573,147.070 277.025,147.613 277.544 C 148.156 278.064,149.590 279.233,150.800 280.142 C 152.010 281.051,153.090 281.886,153.200 281.998 C 153.310 282.109,154.298 282.920,155.395 283.800 C 156.493 284.680,157.689 285.670,158.054 286.000 C 158.419 286.330,159.231 287.011,159.859 287.514 C 160.486 288.017,161.900 289.227,163.000 290.203 C 164.100 291.179,165.128 291.982,165.284 291.989 C 165.441 291.995,165.891 292.332,166.284 292.738 C 166.941 293.414,168.987 295.078,172.999 298.200 C 173.847 298.860,174.737 299.595,174.976 299.834 C 175.596 300.453,181.860 305.653,187.220 309.997 C 191.860 313.758,195.146 316.496,196.361 317.615 C 196.729 317.953,197.701 318.644,198.521 319.151 L 200.014 320.074 201.633 319.230 C 203.051 318.490,207.302 315.172,210.145 312.586 C 210.395 312.358,212.400 310.728,214.600 308.963 C 216.800 307.198,219.320 305.091,220.200 304.279 C 221.080 303.468,221.903 302.803,222.028 302.802 C 222.153 302.801,222.873 302.239,223.628 301.554 C 224.383 300.869,227.250 298.491,230.000 296.269 C 235.712 291.653,239.898 288.174,240.863 287.241 C 241.228 286.889,241.948 286.281,242.463 285.892 C 244.474 284.372,255.501 275.396,257.265 273.842 C 258.290 272.939,259.612 271.840,260.202 271.400 C 260.791 270.960,261.572 270.323,261.937 269.985 C 262.302 269.647,263.230 268.894,264.000 268.313 C 264.770 267.733,265.923 266.794,266.562 266.229 C 267.201 265.663,267.831 265.200,267.962 265.199 C 268.093 265.199,269.341 264.119,270.736 262.799 C 272.131 261.480,273.413 260.400,273.585 260.400 C 273.757 260.400,274.641 259.594,275.549 258.609 L 277.200 256.818 277.200 181.442 C 277.200 139.985,277.088 105.774,276.952 105.418 C 276.253 103.598,276.298 103.600,243.459 103.600 L 212.478 103.600 212.039 102.340 C 211.461 100.683,211.481 98.679,212.080 98.080 C 212.446 97.714,220.802 97.600,247.248 97.600 C 285.325 97.600,284.041 97.680,284.665 95.258 C 284.960 94.112,284.605 87.855,284.208 87.213 C 283.737 86.451,282.799 88.050,283.236 88.868 C 283.778 89.879,283.687 95.353,283.120 95.920 C 282.754 96.286,274.363 96.401,247.820 96.405 C 228.669 96.408,212.617 96.514,212.149 96.639 C 210.869 96.983,210.464 98.289,210.822 100.922 C 211.337 104.715,208.121 104.363,243.378 104.488 C 269.196 104.580,274.793 104.696,275.339 105.149 C 275.949 105.656,276.000 111.482,276.000 181.430 L 276.000 257.163 273.283 259.481 C 271.789 260.757,269.776 262.430,268.810 263.200 C 267.844 263.970,264.342 266.854,261.027 269.610 C 249.054 279.562,249.472 279.219,246.399 281.583 C 245.409 282.344,243.520 283.952,242.200 285.156 C 240.880 286.361,238.810 288.078,237.599 288.973 C 236.388 289.868,231.708 293.665,227.199 297.411 C 222.690 301.157,217.560 305.377,215.800 306.790 C 214.040 308.202,210.170 311.367,207.200 313.824 C 199.764 319.973,200.691 319.942,193.830 314.281 C 191.427 312.298,186.582 308.342,183.063 305.489 C 179.545 302.637,176.251 299.887,175.742 299.379 C 175.234 298.870,174.142 297.947,173.315 297.327 C 172.488 296.707,171.359 295.815,170.806 295.344 C 170.253 294.873,168.000 293.025,165.800 291.238 C 163.600 289.450,159.955 286.438,157.699 284.543 C 155.444 282.649,150.566 278.647,146.860 275.650 C 137.791 268.316,127.737 259.986,125.900 258.283 L 124.400 256.892 124.400 181.295 C 124.400 111.474,124.451 105.656,125.061 105.149 C 125.605 104.698,131.292 104.564,156.961 104.400 C 179.924 104.253,188.412 104.075,189.000 103.728 C 189.848 103.228,190.228 97.695,189.467 96.933 C 189.284 96.750,173.097 96.551,153.498 96.492 C 126.254 96.409,117.724 96.269,117.276 95.897 C 116.803 95.505,116.734 94.635,116.918 91.385 C 117.171 86.918,116.846 85.595,116.090 88.016 M177.678 158.277 C 176.509 158.511,152.401 170.684,151.614 171.439 C 150.816 172.204,150.507 179.527,151.202 181.204 C 151.808 182.667,152.036 182.670,154.800 181.257 C 156.010 180.638,161.640 177.762,167.311 174.866 L 177.623 169.600 200.162 169.600 L 222.702 169.600 233.163 174.900 C 249.837 183.348,247.984 182.539,248.850 181.755 C 249.768 180.924,249.943 173.702,249.086 172.008 C 248.713 171.270,245.362 169.376,235.992 164.608 L 223.400 158.200 201.000 158.147 C 188.680 158.117,178.185 158.176,177.678 158.277 M226.584 160.867 C 228.793 162.004,234.550 164.951,239.377 167.416 C 248.917 172.288,248.729 172.120,248.772 175.850 C 248.824 180.349,247.615 182.201,245.780 180.434 C 245.446 180.113,237.593 176.103,236.000 175.441 C 235.670 175.303,234.860 174.846,234.200 174.425 C 233.540 174.003,232.700 173.645,232.333 173.629 C 231.967 173.613,231.607 173.445,231.533 173.256 C 231.460 173.066,229.636 171.986,227.481 170.856 L 223.561 168.800 200.030 168.800 C 179.601 168.800,176.432 168.879,176.000 169.400 C 175.726 169.730,175.320 170.000,175.098 170.000 C 174.699 170.000,168.249 173.241,164.800 175.175 C 164.470 175.360,163.300 175.968,162.200 176.525 C 161.100 177.083,158.765 178.273,157.011 179.170 C 152.014 181.724,151.604 181.498,151.619 176.200 C 151.630 172.162,151.727 172.088,167.041 164.423 C 169.923 162.980,172.533 161.598,172.841 161.352 C 173.148 161.106,174.059 160.692,174.865 160.433 C 175.670 160.173,176.430 159.700,176.552 159.381 C 176.743 158.882,180.027 158.800,199.671 158.800 L 222.567 158.800 226.584 160.867 M185.387 178.025 C 181.191 179.245,181.200 179.191,181.200 204.201 C 181.200 227.738,181.494 225.799,177.836 226.394 C 176.600 226.595,175.456 226.838,175.294 226.933 C 175.132 227.028,174.595 226.953,174.100 226.766 L 173.200 226.426 173.200 208.073 C 173.200 196.106,173.052 189.294,172.773 188.496 C 171.367 184.460,163.340 183.554,159.952 187.049 L 158.600 188.444 158.400 211.808 C 158.228 231.867,158.115 235.255,157.600 235.759 C 157.270 236.082,154.480 237.626,151.400 239.190 C 144.590 242.647,144.400 242.843,144.400 246.412 C 144.400 250.170,145.695 251.720,147.420 250.027 C 147.877 249.579,151.528 247.666,165.910 240.339 L 176.820 234.782 200.510 234.891 L 224.200 235.000 230.800 238.342 C 234.430 240.181,239.470 242.772,242.000 244.102 C 244.530 245.431,247.950 247.228,249.600 248.095 C 251.250 248.961,252.771 249.835,252.980 250.035 C 254.607 251.597,255.985 250.096,255.995 246.750 C 256.007 242.634,256.146 242.790,249.405 239.371 C 241.121 235.169,242.000 238.457,242.000 211.657 C 242.000 195.681,241.868 188.949,241.542 188.233 C 240.103 185.073,234.599 183.826,230.641 185.763 C 227.065 187.512,227.200 186.631,227.200 208.207 L 227.200 226.894 224.100 226.613 C 222.395 226.459,220.599 226.077,220.110 225.764 L 219.220 225.194 219.110 203.039 C 219.003 181.531,218.977 180.857,218.200 179.985 C 215.305 176.735,207.899 176.860,205.269 180.204 C 204.401 181.306,204.400 181.337,204.400 203.205 C 204.400 222.698,204.330 225.160,203.766 225.628 C 202.742 226.478,198.589 226.616,197.403 225.839 L 196.400 225.182 196.400 203.771 C 196.400 180.916,196.394 180.845,194.439 179.293 C 192.451 177.717,188.399 177.149,185.387 178.025 M193.034 179.487 C 195.325 180.936,195.188 179.400,195.195 203.718 L 195.200 225.236 196.182 226.218 C 197.539 227.575,202.494 227.670,204.146 226.371 L 205.200 225.542 205.200 203.441 L 205.200 181.339 206.100 180.544 C 209.039 177.945,212.857 177.572,216.043 179.573 C 218.507 181.121,218.400 179.983,218.400 204.601 C 218.400 229.742,217.468 226.655,225.416 227.843 C 228.299 228.275,228.185 229.067,228.319 207.650 C 228.451 186.309,228.219 187.848,231.526 186.385 C 234.669 184.995,238.019 185.642,240.290 188.077 L 241.181 189.031 241.290 212.354 L 241.400 235.676 242.600 236.640 C 243.260 237.170,245.330 238.331,247.200 239.221 C 249.070 240.111,250.870 241.008,251.200 241.214 C 251.530 241.420,252.371 241.846,253.068 242.160 C 254.733 242.912,255.200 243.878,255.200 246.574 C 255.200 249.155,254.289 249.522,251.594 248.026 C 250.827 247.601,249.030 246.677,247.600 245.973 C 246.170 245.269,244.730 244.548,244.400 244.371 C 244.070 244.193,240.740 242.492,237.000 240.590 C 233.260 238.688,229.030 236.472,227.600 235.666 L 225.000 234.200 200.200 234.200 L 175.400 234.200 172.800 235.691 C 171.370 236.511,169.480 237.549,168.600 237.998 C 167.720 238.447,166.730 238.970,166.400 239.160 C 166.070 239.350,163.730 240.535,161.200 241.794 C 158.670 243.053,156.330 244.225,156.000 244.399 C 155.670 244.572,154.050 245.390,152.400 246.214 C 150.750 247.039,148.772 248.032,148.004 248.420 C 146.023 249.421,145.200 248.888,145.200 246.605 C 145.200 244.263,145.885 242.871,147.376 242.182 C 148.049 241.871,148.870 241.443,149.200 241.231 C 149.530 241.020,151.330 240.126,153.200 239.246 C 155.070 238.366,157.140 237.203,157.800 236.661 L 159.000 235.676 159.113 212.556 C 159.203 193.949,159.330 189.314,159.760 188.818 C 160.055 188.478,160.369 187.961,160.458 187.669 C 160.998 185.906,166.498 185.244,169.360 186.598 C 172.523 188.095,172.400 187.213,172.400 208.370 C 172.400 229.281,172.272 228.362,175.103 227.814 C 175.927 227.655,177.140 227.442,177.800 227.341 C 182.817 226.571,182.400 228.751,182.400 203.263 L 182.400 181.477 184.067 179.939 C 186.295 177.882,190.187 177.686,193.034 179.487 M176.180 242.752 C 175.971 242.946,172.200 244.928,167.800 247.156 C 163.400 249.384,159.350 251.475,158.800 251.803 C 158.250 252.130,157.350 252.576,156.800 252.792 C 153.315 254.165,151.580 256.093,152.877 257.153 C 153.165 257.387,154.570 258.523,156.000 259.675 C 157.430 260.828,158.829 261.994,159.110 262.267 C 159.390 262.540,160.470 263.446,161.510 264.281 C 162.549 265.117,163.490 265.902,163.600 266.028 C 163.710 266.153,166.535 268.449,169.878 271.131 C 173.222 273.813,176.067 276.185,176.202 276.403 C 176.820 277.404,178.470 276.412,185.024 271.100 C 201.649 257.625,199.710 258.431,205.079 262.763 C 220.059 274.847,222.568 276.800,223.113 276.800 C 223.675 276.800,225.575 275.535,226.865 274.301 C 227.159 274.020,228.660 272.806,230.200 271.604 C 231.740 270.403,233.090 269.317,233.200 269.191 C 233.465 268.890,240.186 263.321,244.535 259.800 C 249.155 256.060,249.187 255.494,244.900 253.444 C 243.195 252.629,240.810 251.415,239.600 250.747 C 238.390 250.080,234.232 247.928,230.359 245.967 L 223.318 242.400 199.939 242.400 C 187.014 242.400,176.390 242.558,176.180 242.752 M226.228 244.892 C 227.752 245.712,231.340 247.568,234.200 249.015 C 237.060 250.462,239.670 251.812,240.000 252.014 C 240.330 252.215,241.230 252.651,242.000 252.982 C 242.770 253.313,243.670 253.768,244.000 253.992 C 244.330 254.217,245.095 254.576,245.700 254.790 C 246.737 255.158,247.391 257.200,246.472 257.200 C 246.292 257.200,245.527 257.759,244.772 258.441 C 244.017 259.124,242.770 260.158,242.000 260.739 C 241.230 261.320,240.510 261.887,240.400 262.000 C 240.290 262.113,239.570 262.677,238.800 263.254 C 238.030 263.831,236.848 264.820,236.172 265.452 C 232.234 269.136,223.967 275.600,223.194 275.600 C 222.791 275.600,221.953 275.181,221.331 274.668 C 220.709 274.156,218.957 272.780,217.438 271.611 C 213.526 268.601,213.168 268.307,212.186 267.300 C 211.703 266.805,211.149 266.398,210.954 266.396 C 210.759 266.393,209.970 265.740,209.200 264.943 C 208.430 264.146,207.170 263.091,206.400 262.597 C 205.630 262.103,204.471 261.204,203.824 260.599 C 201.353 258.285,199.578 258.154,197.216 260.111 C 196.625 260.600,195.529 261.450,194.779 262.000 C 194.029 262.550,192.602 263.731,191.608 264.625 C 186.747 268.994,178.085 275.600,177.216 275.600 C 176.606 275.600,175.306 274.655,172.813 272.400 C 172.205 271.850,171.229 271.056,170.643 270.636 C 170.057 270.216,169.111 269.438,168.539 268.908 C 166.538 267.054,157.129 259.389,155.394 258.200 C 153.276 256.748,153.000 255.393,154.700 254.790 C 155.305 254.576,156.070 254.234,156.400 254.031 C 157.306 253.472,176.910 243.691,177.600 243.454 C 177.930 243.340,188.382 243.281,200.828 243.323 L 223.455 243.400 226.228 244.892 " stroke="none" fill="#a4acbe" fill-rule="evenodd"></path><path id="path4" d="M191.600 71.557 C 190.601 71.834,190.600 71.837,190.354 78.217 C 190.219 81.728,190.084 85.172,190.054 85.871 C 189.939 88.575,192.505 88.400,153.018 88.400 L 117.293 88.400 117.052 89.300 C 116.590 91.024,116.777 95.483,117.331 95.943 C 117.706 96.254,128.290 96.415,153.498 96.492 C 173.097 96.551,189.284 96.750,189.467 96.933 C 190.228 97.695,189.848 103.228,189.000 103.728 C 188.412 104.075,179.924 104.253,156.961 104.400 C 131.292 104.564,125.605 104.698,125.061 105.149 C 124.451 105.656,124.400 111.474,124.400 181.295 L 124.400 256.892 125.900 258.283 C 127.737 259.986,137.791 268.316,146.860 275.650 C 150.566 278.647,155.444 282.649,157.699 284.543 C 159.955 286.438,163.600 289.450,165.800 291.238 C 168.000 293.025,170.253 294.873,170.806 295.344 C 171.359 295.815,172.488 296.707,173.315 297.327 C 174.142 297.947,175.234 298.870,175.742 299.379 C 176.251 299.887,179.545 302.637,183.063 305.489 C 186.582 308.342,191.427 312.298,193.830 314.281 C 200.691 319.942,199.764 319.973,207.200 313.824 C 210.170 311.367,214.040 308.202,215.800 306.790 C 217.560 305.377,222.690 301.157,227.199 297.411 C 231.708 293.665,236.388 289.868,237.599 288.973 C 238.810 288.078,240.880 286.361,242.200 285.156 C 243.520 283.952,245.409 282.344,246.399 281.583 C 249.472 279.219,249.054 279.562,261.027 269.610 C 264.342 266.854,267.844 263.970,268.810 263.200 C 269.776 262.430,271.789 260.757,273.283 259.481 L 276.000 257.163 276.000 181.430 C 276.000 111.482,275.949 105.656,275.339 105.149 C 274.793 104.696,269.196 104.580,243.378 104.488 C 208.121 104.363,211.337 104.715,210.822 100.922 C 210.464 98.289,210.869 96.983,212.149 96.639 C 212.617 96.514,228.669 96.408,247.820 96.405 C 274.363 96.401,282.754 96.286,283.120 95.920 C 283.619 95.421,283.800 90.186,283.357 89.033 C 283.138 88.462,279.595 88.400,247.366 88.400 L 211.618 88.400 211.051 87.500 C 210.647 86.859,210.404 84.525,210.208 79.400 C 209.900 71.358,209.948 71.492,207.387 71.439 C 203.961 71.367,204.055 70.265,205.194 97.200 C 205.413 102.370,205.799 112.540,206.051 119.800 C 206.619 136.127,205.523 134.400,215.317 134.400 L 222.911 134.400 235.294 140.700 C 249.963 148.163,249.600 147.893,249.600 151.327 C 249.600 154.238,250.422 155.706,252.567 156.625 C 255.202 157.753,256.000 158.965,256.000 161.842 C 256.000 166.819,256.006 166.819,246.800 162.091 C 243.390 160.340,237.023 157.083,232.652 154.854 L 224.703 150.800 200.337 150.800 L 175.971 150.800 161.322 158.220 C 144.068 166.960,144.653 166.822,144.482 162.216 C 144.350 158.670,144.455 158.496,147.772 156.741 C 150.127 155.496,150.771 154.517,150.787 152.160 C 150.812 148.289,151.142 147.880,156.337 145.268 C 158.902 143.979,164.729 141.006,169.287 138.662 L 177.575 134.400 185.178 134.400 C 194.869 134.400,193.875 135.805,194.392 121.377 C 194.612 115.229,194.972 105.610,195.191 100.000 C 196.370 69.809,196.422 70.221,191.600 71.557 M194.743 73.150 C 195.174 74.030,194.816 87.740,193.346 126.703 C 193.071 133.983,194.110 133.233,184.146 133.342 L 177.000 133.419 171.200 136.451 C 168.010 138.118,164.770 139.858,164.000 140.316 C 162.269 141.347,153.732 145.600,153.394 145.600 C 151.534 145.600,149.600 148.984,149.600 152.239 C 149.600 154.353,148.058 156.400,146.466 156.400 C 144.832 156.400,143.600 158.881,143.600 162.170 C 143.600 168.418,144.141 168.429,154.855 162.389 C 156.315 161.565,158.145 160.682,158.923 160.426 C 159.700 160.169,160.552 159.698,160.817 159.380 C 161.082 159.061,161.501 158.799,161.749 158.797 C 161.997 158.795,165.440 157.177,169.400 155.200 L 176.600 151.606 200.301 151.603 L 224.001 151.600 235.301 157.237 C 241.515 160.337,248.528 163.892,250.884 165.137 C 255.919 167.796,256.394 167.690,256.713 163.838 C 257.062 159.638,256.604 158.206,254.479 156.842 C 250.584 154.342,250.800 154.655,250.800 151.519 C 250.800 148.067,249.549 146.594,244.945 144.627 C 243.435 143.982,240.940 142.732,239.400 141.849 C 237.860 140.966,233.630 138.713,230.000 136.841 L 223.400 133.438 216.144 133.360 C 212.154 133.317,208.535 133.170,208.103 133.033 C 207.208 132.749,207.030 129.902,206.383 105.600 C 206.199 98.670,205.850 88.593,205.608 83.207 C 205.134 72.671,205.174 72.400,207.200 72.400 C 209.179 72.400,209.388 73.112,209.600 80.554 C 209.772 86.590,209.900 87.673,210.514 88.287 C 211.187 88.959,213.277 89.006,246.627 89.106 L 282.025 89.213 282.431 90.281 C 283.207 92.321,282.741 95.329,281.600 95.644 C 281.050 95.796,264.985 95.938,245.900 95.960 C 211.761 95.999,211.187 96.013,210.400 96.800 C 208.944 98.256,209.553 103.761,211.305 104.988 C 212.070 105.525,216.031 105.600,243.442 105.600 L 274.707 105.600 274.948 106.500 C 275.081 106.995,275.192 140.916,275.195 181.879 L 275.200 256.359 274.300 257.329 C 273.333 258.371,270.959 260.386,268.796 262.000 C 268.059 262.550,267.038 263.360,266.527 263.800 C 266.017 264.240,264.853 265.230,263.943 266.000 C 263.032 266.770,261.637 267.956,260.843 268.635 C 260.049 269.315,255.890 272.719,251.600 276.200 C 247.310 279.681,243.440 282.860,243.000 283.263 C 240.639 285.430,239.185 286.649,237.200 288.125 C 234.437 290.180,226.478 296.669,225.367 297.772 C 224.909 298.228,223.761 299.230,222.816 300.000 C 221.871 300.770,220.266 302.107,219.249 302.970 C 218.232 303.834,216.320 305.336,215.000 306.307 C 213.680 307.279,211.479 309.062,210.110 310.269 C 201.297 318.037,200.295 318.575,198.118 316.700 C 197.287 315.985,196.371 315.220,196.082 315.000 C 195.793 314.780,195.047 314.150,194.425 313.600 C 190.528 310.154,185.884 306.371,183.376 304.600 C 182.327 303.859,178.070 300.345,176.205 298.681 C 175.762 298.286,175.130 297.724,174.800 297.432 C 173.158 295.980,166.313 290.431,164.645 289.200 C 162.897 287.909,157.408 283.296,153.951 280.211 C 153.153 279.500,151.806 278.396,150.957 277.759 C 147.855 275.431,140.973 269.861,140.000 268.891 C 138.680 267.575,131.186 261.431,130.332 260.965 C 129.965 260.764,128.660 259.641,127.432 258.468 L 125.200 256.336 125.200 181.417 C 125.200 119.543,125.293 106.421,125.732 106.056 C 126.108 105.744,135.499 105.583,157.718 105.507 C 194.175 105.383,190.442 105.928,190.717 100.690 C 190.992 95.460,195.096 96.001,155.071 95.996 C 136.112 95.993,119.925 95.880,119.100 95.743 L 117.600 95.495 117.600 93.024 C 117.600 88.799,113.701 89.220,153.886 89.103 C 187.136 89.006,189.213 88.959,189.886 88.286 C 190.494 87.679,190.637 86.549,190.851 80.686 C 190.989 76.899,191.124 73.762,191.151 73.716 C 192.029 72.200,194.118 71.871,194.743 73.150 M178.000 157.464 C 175.844 157.798,152.283 169.540,150.800 171.019 C 148.966 172.848,149.111 181.799,150.994 183.033 C 152.177 183.808,153.223 183.392,160.593 179.220 C 163.332 177.669,165.697 176.400,165.848 176.400 C 166.000 176.400,168.638 175.140,171.711 173.600 L 177.299 170.800 200.225 170.800 L 223.152 170.800 226.676 172.564 C 228.614 173.535,232.270 175.359,234.800 176.619 C 237.330 177.879,240.300 179.413,241.400 180.028 C 250.180 184.938,251.008 184.586,250.734 176.069 L 250.600 171.911 249.200 170.723 C 247.911 169.629,246.537 168.836,242.800 167.026 C 242.030 166.654,241.040 166.146,240.600 165.898 C 238.362 164.638,227.955 159.600,227.590 159.600 C 227.358 159.600,226.680 159.242,226.084 158.805 C 225.488 158.367,224.030 157.827,222.845 157.605 C 220.829 157.226,180.354 157.099,178.000 157.464 M235.992 164.608 C 245.362 169.376,248.713 171.270,249.086 172.008 C 249.943 173.702,249.768 180.924,248.850 181.755 C 247.984 182.539,249.837 183.348,233.163 174.900 L 222.702 169.600 200.162 169.600 L 177.623 169.600 167.311 174.866 C 161.640 177.762,156.010 180.638,154.800 181.257 C 152.036 182.670,151.808 182.667,151.202 181.204 C 150.507 179.527,150.816 172.204,151.614 171.439 C 152.401 170.684,176.509 158.511,177.678 158.277 C 178.185 158.176,188.680 158.117,201.000 158.147 L 223.400 158.200 235.992 164.608 M185.059 177.352 C 183.946 177.665,182.581 178.434,181.859 179.156 L 180.600 180.415 180.487 202.407 L 180.374 224.399 179.487 224.965 C 178.999 225.277,177.700 225.592,176.600 225.666 L 174.600 225.800 174.400 207.400 C 174.219 190.753,174.132 188.876,173.489 187.698 C 170.766 182.715,160.423 182.879,158.118 187.941 C 157.761 188.726,157.631 194.864,157.618 211.630 L 157.600 234.261 156.696 235.110 C 155.751 235.997,151.610 238.388,149.200 239.437 C 143.945 241.725,143.600 242.177,143.600 246.775 C 143.600 252.120,144.879 252.561,150.789 249.251 C 152.225 248.447,154.570 247.186,156.000 246.449 C 157.430 245.712,159.500 244.606,160.600 243.992 C 162.630 242.858,166.373 240.973,172.700 237.900 L 176.200 236.200 200.400 236.200 L 224.600 236.200 226.600 237.268 C 227.700 237.855,230.760 239.378,233.400 240.652 C 236.040 241.926,239.100 243.495,240.200 244.138 C 241.300 244.781,244.270 246.381,246.800 247.694 C 249.330 249.007,251.580 250.219,251.800 250.388 C 255.108 252.931,256.964 251.385,256.720 246.288 C 256.513 241.959,256.622 242.080,249.800 238.615 C 246.940 237.162,244.196 235.484,243.702 234.887 L 242.804 233.800 242.802 211.526 C 242.801 197.062,242.654 188.868,242.384 188.157 C 240.359 182.832,229.133 182.634,226.939 187.884 C 226.514 188.901,226.400 192.978,226.400 207.164 C 226.400 227.141,226.616 225.789,223.440 225.644 C 220.171 225.495,220.400 227.142,220.400 203.738 C 220.400 180.936,220.416 181.114,218.130 178.728 C 215.260 175.731,205.997 176.573,204.127 180.000 C 203.947 180.330,203.710 190.470,203.600 202.533 C 203.373 227.443,203.665 225.600,199.947 225.600 C 197.277 225.600,197.420 226.792,197.200 202.729 C 197.005 181.442,196.978 180.828,196.177 179.756 C 194.320 177.269,189.252 176.173,185.059 177.352 M192.451 178.193 C 196.566 180.003,196.400 178.931,196.400 203.771 L 196.400 225.182 197.403 225.839 C 198.589 226.616,202.742 226.478,203.766 225.628 C 204.330 225.160,204.400 222.698,204.400 203.205 C 204.400 181.337,204.401 181.306,205.269 180.204 C 207.899 176.860,215.305 176.735,218.200 179.985 C 218.977 180.857,219.003 181.531,219.110 203.039 L 219.220 225.194 220.110 225.764 C 220.599 226.077,222.395 226.459,224.100 226.613 L 227.200 226.894 227.200 208.207 C 227.200 186.631,227.065 187.512,230.641 185.763 C 234.599 183.826,240.103 185.073,241.542 188.233 C 241.868 188.949,242.000 195.681,242.000 211.657 C 242.000 238.457,241.121 235.169,249.405 239.371 C 256.146 242.790,256.007 242.634,255.995 246.750 C 255.985 250.096,254.607 251.597,252.980 250.035 C 252.771 249.835,251.250 248.961,249.600 248.095 C 247.950 247.228,244.530 245.431,242.000 244.102 C 239.470 242.772,234.430 240.181,230.800 238.342 L 224.200 235.000 200.510 234.891 L 176.820 234.782 165.910 240.339 C 151.528 247.666,147.877 249.579,147.420 250.027 C 145.695 251.720,144.400 250.170,144.400 246.412 C 144.400 242.843,144.590 242.647,151.400 239.190 C 154.480 237.626,157.270 236.082,157.600 235.759 C 158.115 235.255,158.228 231.867,158.400 211.808 L 158.600 188.444 159.952 187.049 C 163.340 183.554,171.367 184.460,172.773 188.496 C 173.052 189.294,173.200 196.106,173.200 208.073 L 173.200 226.426 174.100 226.766 C 174.595 226.953,175.132 227.028,175.294 226.933 C 175.456 226.838,176.600 226.595,177.836 226.394 C 181.494 225.799,181.200 227.738,181.200 204.201 C 181.200 192.705,181.313 182.737,181.450 182.048 C 182.158 178.510,188.288 176.362,192.451 178.193 M169.000 245.470 C 162.239 248.883,158.398 250.892,152.866 253.908 C 150.582 255.153,150.553 256.567,152.779 258.224 C 153.648 258.871,155.904 260.719,157.792 262.330 C 160.930 265.009,169.630 272.075,173.392 275.000 C 174.241 275.660,175.215 276.515,175.557 276.900 C 176.770 278.267,178.254 277.774,181.934 274.780 C 186.267 271.255,186.282 271.244,188.208 269.838 C 189.084 269.199,190.160 268.353,190.600 267.957 C 191.040 267.561,191.760 266.914,192.201 266.518 C 196.443 262.705,200.005 260.374,200.885 260.834 C 202.029 261.432,206.662 265.003,208.000 266.317 C 208.550 266.858,210.080 268.122,211.400 269.127 C 212.720 270.132,215.620 272.430,217.845 274.233 C 223.556 278.861,222.719 278.916,229.253 273.487 C 231.314 271.775,233.182 270.245,233.404 270.087 C 233.979 269.678,237.240 267.029,238.256 266.145 C 238.726 265.735,239.806 264.829,240.656 264.131 C 241.505 263.433,243.634 261.678,245.386 260.231 C 247.139 258.784,248.714 257.600,248.886 257.600 C 249.059 257.600,249.200 256.914,249.200 256.077 C 249.200 254.574,249.159 254.534,246.300 253.222 C 244.705 252.490,242.140 251.161,240.600 250.269 C 239.060 249.376,234.681 247.061,230.869 245.123 L 223.939 241.600 200.269 241.616 L 176.600 241.632 169.000 245.470 M230.359 245.967 C 234.232 247.928,238.390 250.080,239.600 250.747 C 240.810 251.415,243.195 252.629,244.900 253.444 C 249.187 255.494,249.155 256.060,244.535 259.800 C 240.186 263.321,233.465 268.890,233.200 269.191 C 233.090 269.317,231.740 270.403,230.200 271.604 C 228.660 272.806,227.159 274.020,226.865 274.301 C 225.575 275.535,223.675 276.800,223.113 276.800 C 222.568 276.800,220.059 274.847,205.079 262.763 C 199.710 258.431,201.649 257.625,185.024 271.100 C 178.470 276.412,176.820 277.404,176.202 276.403 C 176.067 276.185,173.222 273.813,169.878 271.131 C 166.535 268.449,163.710 266.153,163.600 266.028 C 163.490 265.902,162.549 265.117,161.510 264.281 C 160.470 263.446,159.390 262.540,159.110 262.267 C 158.829 261.994,157.430 260.828,156.000 259.675 C 154.570 258.523,153.165 257.387,152.877 257.153 C 151.580 256.093,153.315 254.165,156.800 252.792 C 157.350 252.576,158.250 252.130,158.800 251.803 C 159.350 251.475,163.400 249.384,167.800 247.156 C 172.200 244.928,175.971 242.946,176.180 242.752 C 176.390 242.558,187.014 242.400,199.939 242.400 L 223.318 242.400 230.359 245.967 M197.989 269.644 C 196.325 270.841,192.488 273.958,191.278 275.096 C 190.988 275.369,189.399 276.609,187.748 277.852 C 182.306 281.948,182.365 282.393,189.000 287.380 C 190.100 288.207,191.630 289.451,192.400 290.145 C 200.000 296.992,199.997 296.991,205.136 292.631 C 206.971 291.074,209.569 288.948,210.910 287.907 C 218.720 281.844,218.901 282.690,207.904 273.868 C 200.551 267.969,200.405 267.907,197.989 269.644 M202.246 270.099 C 202.881 270.593,203.670 271.219,204.000 271.489 C 204.330 271.759,205.256 272.480,206.057 273.090 C 207.963 274.542,214.802 280.328,215.698 281.247 C 216.514 282.083,215.075 283.822,210.600 287.409 C 209.280 288.467,206.756 290.538,204.990 292.011 C 200.436 295.811,199.808 295.863,196.335 292.724 C 195.530 291.996,192.688 289.621,190.020 287.446 C 183.191 281.877,183.236 282.314,189.000 277.680 C 190.540 276.442,192.088 275.152,192.440 274.814 C 192.792 274.476,193.769 273.660,194.611 273.000 C 195.453 272.340,196.335 271.615,196.571 271.390 C 198.796 269.263,200.636 268.845,202.246 270.099 " stroke="none" fill="#848ca4" fill-rule="evenodd"></path></g></svg>